<svg version="1.1" id="Layer_1" xmlns="http://www.w3.org/2000/svg" xmlns:xlink="http://www.w3.org/1999/xlink" x="0px" y="0px"
	 width="100%" viewBox="0 0 1080 1080" enable-background="new 0 0 1080 1080" xml:space="preserve">
<path fill="#FFFFFF" opacity="1.000000" stroke="none" 
	d="
M603.000000,1081.000000 
	C402.023132,1081.000000 201.546280,1081.000000 1.034705,1081.000000 
	C1.034705,721.064697 1.034705,361.129364 1.034705,1.097018 
	C360.893768,1.097018 720.787598,1.097018 1080.840698,1.097018 
	C1080.840698,360.999939 1080.840698,720.999939 1080.840698,1081.000000 
	C921.795593,1081.000000 762.647766,1081.000000 603.000000,1081.000000 
M30.508232,456.233948 
	C25.719397,456.233948 20.930561,456.233948 15.867754,456.233948 
	C15.867754,512.400024 15.867754,568.070557 15.867754,623.777222 
	C42.697647,623.777222 69.175415,624.141479 95.635429,623.614319 
	C107.760674,623.372681 119.158424,619.481628 128.971008,611.839661 
	C151.498032,594.295776 150.126511,557.073303 126.087837,542.627441 
	C120.761818,539.426819 114.353783,538.026672 108.376656,535.772095 
	C108.328323,536.006165 108.315712,535.749634 108.398773,535.713623 
	C109.292297,535.325928 110.184509,534.923340 111.107895,534.618042 
	C125.011948,530.020935 135.408813,521.731323 137.726273,506.547760 
	C140.259430,489.951172 135.205887,475.895477 121.077721,465.939331 
	C113.129501,460.338135 103.984428,457.428253 94.427307,457.127075 
	C73.464897,456.466461 52.480919,456.489899 30.508232,456.233948 
M345.303986,580.433899 
	C340.924927,591.625061 330.349854,597.762024 318.699951,595.873047 
	C307.841431,594.112305 301.090240,585.219666 301.032959,572.123108 
	C300.933105,549.294983 301.004730,526.466187 301.004486,503.637634 
	C301.004486,501.890991 301.004486,500.144379 301.004486,498.481567 
	C288.974091,498.481567 277.725586,498.481567 266.300537,498.481567 
	C266.214142,499.772949 266.092346,500.745789 266.092255,501.718628 
	C266.089691,527.546509 265.993896,553.375183 266.197510,579.201477 
	C266.237793,584.312927 266.964020,589.531494 268.186584,594.500793 
	C272.593079,612.411621 285.772644,623.431030 304.724426,625.540222 
	C322.487457,627.517151 337.799347,619.302551 345.953064,603.457886 
	C346.330414,602.724609 346.978821,602.130859 348.242859,600.536255 
	C348.242859,609.024902 348.242859,616.295105 348.242859,623.725830 
	C359.529510,623.725830 370.428314,623.725830 381.359100,623.725830 
	C381.359100,581.759766 381.359100,540.073730 381.359100,498.505219 
	C369.664612,498.505219 358.410370,498.505219 346.862793,498.505219 
	C346.862793,500.680511 346.862793,502.500336 346.862793,504.320160 
	C346.862701,525.315735 346.927948,546.311707 346.806641,567.306641 
	C346.782776,571.437561 346.038971,575.564331 345.303986,580.433899 
M588.002869,576.500000 
	C587.683472,561.694092 588.378662,546.778259 586.790222,532.109802 
	C584.765442,513.412476 571.211365,499.943115 553.335327,497.326965 
	C532.993286,494.349884 515.772156,500.965393 507.614777,518.642334 
	C507.382477,519.145752 506.890381,519.529297 505.525635,521.146057 
	C505.525635,512.670471 505.525635,505.642334 505.525635,498.582977 
	C494.008972,498.582977 483.152832,498.582977 472.434570,498.582977 
	C472.434570,540.588135 472.434570,582.160095 472.434570,623.755493 
	C484.047272,623.755493 495.308777,623.755493 507.002991,623.755493 
	C507.002991,621.723511 507.002991,619.932617 507.002991,618.141724 
	C507.002991,596.314636 506.957977,574.487427 507.051208,552.660706 
	C507.065308,549.358337 507.386688,545.979309 508.143494,542.772095 
	C510.794342,531.538452 519.873291,525.309448 532.446045,525.802246 
	C543.429932,526.232727 550.956909,532.935486 552.759033,544.123474 
	C553.179443,546.733459 553.090332,549.439087 553.093201,552.100769 
	C553.116882,574.261108 553.107178,596.421387 553.107605,618.581726 
	C553.107605,620.326294 553.107544,622.070862 553.107544,623.701294 
	C565.164124,623.701294 576.423401,623.701294 588.002869,623.701294 
	C588.002869,608.101196 588.002869,592.800598 588.002869,576.500000 
M732.830078,489.671753 
	C725.851685,468.799713 710.250000,458.524628 689.363892,457.241089 
	C667.278015,455.883759 645.066772,456.564362 622.910095,456.382538 
	C622.647339,456.380371 622.381653,456.748199 622.127625,456.946167 
	C622.127625,512.532227 622.127625,568.118225 622.127625,623.789062 
	C628.809387,623.789062 635.227295,623.789062 642.072632,623.789062 
	C642.072632,601.992981 642.072632,580.408142 642.072632,558.514465 
	C654.477661,558.514465 666.458496,558.681946 678.429443,558.411011 
	C681.961426,558.331116 683.689575,559.443176 685.317017,562.518188 
	C695.575012,581.900146 706.038208,601.173950 716.532959,620.429260 
	C717.300720,621.837891 718.806458,623.782593 720.045776,623.840576 
	C727.074585,624.169678 734.126648,623.999817 741.929565,623.999817 
	C729.075500,600.485046 716.687500,577.822815 704.175293,554.933472 
	C705.799561,554.185486 706.957458,553.611023 708.146545,553.110962 
	C721.336548,547.564636 729.549194,537.701660 733.242493,524.002197 
	C736.258118,512.816284 736.077637,501.618805 732.830078,489.671753 
M926.200867,513.500732 
	C926.200867,494.545746 926.200867,475.590759 926.200867,456.504242 
	C919.648682,456.504242 913.558594,456.504242 906.785767,456.504242 
	C906.785767,477.161682 906.785767,497.614258 906.785767,518.066833 
	C903.996277,516.216736 902.399170,513.971436 900.793396,511.732330 
	C896.192688,505.316803 890.311768,500.297516 882.653564,498.397522 
	C863.075134,493.539948 841.184937,498.258698 827.451904,517.811768 
	C819.565796,529.040161 816.220459,541.778564 815.482788,555.286804 
	C814.558472,572.214355 817.078674,588.340820 825.952881,603.237610 
	C842.610535,631.200073 888.438477,636.428955 903.860718,607.061096 
	C904.405334,606.023987 905.676025,605.368103 907.744263,603.519043 
	C907.744263,611.388916 907.744263,617.603882 907.744263,623.698303 
	C914.202515,623.698303 920.098694,623.698303 926.200867,623.698303 
	C926.200867,587.095154 926.200867,550.797974 926.200867,513.500732 
M1052.899048,615.401184 
	C1059.640625,610.015442 1064.623657,603.458862 1067.103027,594.786133 
	C1060.598389,593.014038 1054.576416,591.373474 1048.639771,589.756165 
	C1040.703125,608.856079 1021.397400,611.735413 1005.357300,607.736938 
	C988.459656,603.524719 977.213501,586.731140 978.330078,567.657898 
	C1008.499817,567.657898 1038.710083,567.657898 1069.620728,567.657898 
	C1069.036621,558.913147 1068.958374,550.729309 1067.865112,542.683350 
	C1064.544434,518.246033 1048.638916,501.795685 1024.645752,497.390961 
	C1001.053162,493.059784 978.539490,503.955109 967.111633,525.183838 
	C959.330994,539.637207 957.496521,555.187683 959.056519,571.194214 
	C961.181824,592.999878 969.753479,611.433655 990.663879,620.840942 
	C1011.730408,630.318420 1032.731689,629.156128 1052.899048,615.401184 
M167.292572,569.500000 
	C167.292572,587.586182 167.292572,605.672302 167.292572,623.717407 
	C179.302338,623.717407 190.566223,623.717407 202.207443,623.717407 
	C202.207443,602.638855 202.174423,581.846558 202.234421,561.054565 
	C202.246887,556.732788 202.314148,552.375000 202.860443,548.098206 
	C204.147583,538.021423 211.068283,529.795715 221.020599,528.043152 
	C226.972931,526.994934 233.290833,528.022705 240.101578,528.127502 
	C243.068024,519.962036 246.450577,510.651154 249.898972,501.159058 
	C242.254242,496.552673 234.330276,495.457306 226.090515,497.121063 
	C213.518814,499.659424 206.326080,508.236328 201.198349,519.632996 
	C201.198349,512.629822 201.198349,505.626587 201.198349,498.412842 
	C189.674805,498.412842 178.773666,498.412842 167.292801,498.412842 
	C167.292801,521.949463 167.292801,545.224731 167.292572,569.500000 
M409.292572,547.500000 
	C409.292572,572.915466 409.292572,598.330994 409.292572,623.815002 
	C421.291168,623.815002 432.579254,623.815002 443.970886,623.815002 
	C443.970886,581.900574 443.970886,540.177917 443.970886,498.415833 
	C432.385010,498.415833 421.124695,498.415833 409.292816,498.415833 
	C409.292816,514.618774 409.292816,530.559387 409.292572,547.500000 
M766.774353,613.487000 
	C766.774353,616.911194 766.774353,620.335388 766.774353,623.794250 
	C773.448242,623.794250 779.536011,623.794250 785.715820,623.794250 
	C785.715820,581.901672 785.715820,540.216309 785.715820,498.449585 
	C779.349487,498.449585 773.271545,498.449585 766.774353,498.449585 
	C766.774353,536.631165 766.774353,574.560059 766.774353,613.487000 
M430.060577,447.020386 
	C428.070251,447.016113 426.062103,446.836731 424.092529,447.036743 
	C413.545959,448.107727 405.969360,458.608582 408.602142,468.396271 
	C410.998962,477.306793 419.296539,482.778748 429.181671,481.967743 
	C437.606110,481.276581 444.979553,474.223785 445.844452,466.029572 
	C446.757935,457.375000 441.093079,450.192078 430.060577,447.020386 
M773.474548,476.972137 
	C774.968384,477.022614 776.471191,477.202515 777.954529,477.100525 
	C783.487122,476.720062 788.638611,472.425171 789.860474,467.283478 
	C791.220520,461.560272 788.652832,455.944122 783.309326,452.954498 
	C776.406555,449.092499 767.557678,451.726562 764.082947,458.677582 
	C760.520813,465.803467 763.981750,473.070496 773.474548,476.972137 
z"/>
<path fill="#0D8BE6" opacity="1.000000" stroke="none" 
	d="
M31.006990,456.234009 
	C52.480919,456.489899 73.464897,456.466461 94.427307,457.127075 
	C103.984428,457.428253 113.129501,460.338135 121.077721,465.939331 
	C135.205887,475.895477 140.259430,489.951172 137.726273,506.547760 
	C135.408813,521.731323 125.011948,530.020935 111.107895,534.618042 
	C110.184509,534.923340 109.292297,535.325928 108.398773,535.713623 
	C108.315712,535.749634 108.328323,536.006165 108.376656,535.772095 
	C114.353783,538.026672 120.761818,539.426819 126.087837,542.627441 
	C150.126511,557.073303 151.498032,594.295776 128.971008,611.839661 
	C119.158424,619.481628 107.760674,623.372681 95.635429,623.614319 
	C69.175415,624.141479 42.697647,623.777222 15.867754,623.777222 
	C15.867754,568.070557 15.867754,512.400024 15.867754,456.233948 
	C20.930561,456.233948 25.719397,456.233948 31.006990,456.234009 
M106.889336,581.979431 
	C111.416199,567.242065 103.876854,553.385132 88.603371,551.520569 
	C76.380539,550.028564 63.830223,551.219238 51.366344,551.219238 
	C51.366344,565.735596 51.366344,580.267700 51.366344,594.985352 
	C62.537170,594.985352 73.362579,595.360229 84.148796,594.870972 
	C93.356621,594.453369 102.021606,592.134949 106.889336,581.979431 
M91.541962,487.700195 
	C78.345871,482.543701 64.707748,486.120483 51.014584,484.852478 
	C51.014584,498.440796 51.010406,511.221344 51.027023,524.001892 
	C51.027847,524.635925 51.209625,525.269714 51.300686,525.861633 
	C62.403023,525.861633 73.375031,526.566528 84.209663,525.649048 
	C93.682114,524.847046 100.628479,517.764526 102.054199,509.911682 
	C103.837547,500.088959 100.896782,493.503784 91.541962,487.700195 
z"/>
<path fill="#0D8BE6" opacity="1.000000" stroke="none" 
	d="
M345.465576,580.063477 
	C346.038971,575.564331 346.782776,571.437561 346.806641,567.306641 
	C346.927948,546.311707 346.862701,525.315735 346.862793,504.320160 
	C346.862793,502.500336 346.862793,500.680511 346.862793,498.505219 
	C358.410370,498.505219 369.664612,498.505219 381.359100,498.505219 
	C381.359100,540.073730 381.359100,581.759766 381.359100,623.725830 
	C370.428314,623.725830 359.529510,623.725830 348.242859,623.725830 
	C348.242859,616.295105 348.242859,609.024902 348.242859,600.536255 
	C346.978821,602.130859 346.330414,602.724609 345.953064,603.457886 
	C337.799347,619.302551 322.487457,627.517151 304.724426,625.540222 
	C285.772644,623.431030 272.593079,612.411621 268.186584,594.500793 
	C266.964020,589.531494 266.237793,584.312927 266.197510,579.201477 
	C265.993896,553.375183 266.089691,527.546509 266.092255,501.718628 
	C266.092346,500.745789 266.214142,499.772949 266.300537,498.481567 
	C277.725586,498.481567 288.974091,498.481567 301.004486,498.481567 
	C301.004486,500.144379 301.004486,501.890991 301.004486,503.637634 
	C301.004730,526.466187 300.933105,549.294983 301.032959,572.123108 
	C301.090240,585.219666 307.841431,594.112305 318.699951,595.873047 
	C330.349854,597.762024 340.924927,591.625061 345.465576,580.063477 
z"/>
<path fill="#0D8BE6" opacity="1.000000" stroke="none" 
	d="
M588.002869,577.000000 
	C588.002869,592.800598 588.002869,608.101196 588.002869,623.701294 
	C576.423401,623.701294 565.164124,623.701294 553.107544,623.701294 
	C553.107544,622.070862 553.107605,620.326294 553.107605,618.581726 
	C553.107178,596.421387 553.116882,574.261108 553.093201,552.100769 
	C553.090332,549.439087 553.179443,546.733459 552.759033,544.123474 
	C550.956909,532.935486 543.429932,526.232727 532.446045,525.802246 
	C519.873291,525.309448 510.794342,531.538452 508.143494,542.772095 
	C507.386688,545.979309 507.065308,549.358337 507.051208,552.660706 
	C506.957977,574.487427 507.002991,596.314636 507.002991,618.141724 
	C507.002991,619.932617 507.002991,621.723511 507.002991,623.755493 
	C495.308777,623.755493 484.047272,623.755493 472.434570,623.755493 
	C472.434570,582.160095 472.434570,540.588135 472.434570,498.582977 
	C483.152832,498.582977 494.008972,498.582977 505.525635,498.582977 
	C505.525635,505.642334 505.525635,512.670471 505.525635,521.146057 
	C506.890381,519.529297 507.382477,519.145752 507.614777,518.642334 
	C515.772156,500.965393 532.993286,494.349884 553.335327,497.326965 
	C571.211365,499.943115 584.765442,513.412476 586.790222,532.109802 
	C588.378662,546.778259 587.683472,561.694092 588.002869,577.000000 
z"/>
<path fill="#030303" opacity="1.000000" stroke="none" 
	d="
M732.912109,490.066040 
	C736.077637,501.618805 736.258118,512.816284 733.242493,524.002197 
	C729.549194,537.701660 721.336548,547.564636 708.146545,553.110962 
	C706.957458,553.611023 705.799561,554.185486 704.175293,554.933472 
	C716.687500,577.822815 729.075500,600.485046 741.929565,623.999817 
	C734.126648,623.999817 727.074585,624.169678 720.045776,623.840576 
	C718.806458,623.782593 717.300720,621.837891 716.532959,620.429260 
	C706.038208,601.173950 695.575012,581.900146 685.317017,562.518188 
	C683.689575,559.443176 681.961426,558.331116 678.429443,558.411011 
	C666.458496,558.681946 654.477661,558.514465 642.072632,558.514465 
	C642.072632,580.408142 642.072632,601.992981 642.072632,623.789062 
	C635.227295,623.789062 628.809387,623.789062 622.127625,623.789062 
	C622.127625,568.118225 622.127625,512.532227 622.122437,456.944763 
	C622.381653,456.748199 622.647339,456.380371 622.910095,456.382538 
	C645.066772,456.564362 667.278015,455.883759 689.363892,457.241089 
	C710.250000,458.524628 725.851685,468.799713 732.912109,490.066040 
M671.424194,474.281158 
	C661.678223,474.281158 651.932312,474.281158 642.241821,474.281158 
	C642.241821,496.619202 642.241821,518.207275 642.241821,539.923584 
	C656.929382,539.923584 671.410278,540.479492 685.812683,539.658325 
	C691.832703,539.315186 698.336792,537.094421 703.483582,533.896912 
	C715.228455,526.600281 718.995422,507.340302 712.612244,492.416534 
	C709.288757,484.646332 703.880676,478.745300 695.557129,476.979889 
	C687.987183,475.374329 680.129028,475.127136 671.424194,474.281158 
z"/>
<path fill="#030303" opacity="1.000000" stroke="none" 
	d="
M926.200867,514.000732 
	C926.200867,550.797974 926.200867,587.095154 926.200867,623.698303 
	C920.098694,623.698303 914.202515,623.698303 907.744263,623.698303 
	C907.744263,617.603882 907.744263,611.388916 907.744263,603.519043 
	C905.676025,605.368103 904.405334,606.023987 903.860718,607.061096 
	C888.438477,636.428955 842.610535,631.200073 825.952881,603.237610 
	C817.078674,588.340820 814.558472,572.214355 815.482788,555.286804 
	C816.220459,541.778564 819.565796,529.040161 827.451904,517.811768 
	C841.184937,498.258698 863.075134,493.539948 882.653564,498.397522 
	C890.311768,500.297516 896.192688,505.316803 900.793396,511.732330 
	C902.399170,513.971436 903.996277,516.216736 906.785767,518.066833 
	C906.785767,497.614258 906.785767,477.161682 906.785767,456.504242 
	C913.558594,456.504242 919.648682,456.504242 926.200867,456.504242 
	C926.200867,475.590759 926.200867,494.545746 926.200867,514.000732 
M834.845398,556.640381 
	C834.197937,568.950134 835.546997,580.900146 841.741333,591.835815 
	C848.375244,603.547424 858.343018,609.458374 872.007446,609.205994 
	C885.519592,608.956299 895.343384,602.851074 900.916809,590.766724 
	C909.736389,571.643921 910.133179,551.915039 901.412354,532.833313 
	C890.741638,509.485138 858.224670,506.970551 843.480591,527.937988 
	C837.689453,536.173523 835.451538,545.723999 834.845398,556.640381 
z"/>
<path fill="#040404" opacity="1.000000" stroke="none" 
	d="
M1052.631104,615.641052 
	C1032.731689,629.156128 1011.730408,630.318420 990.663879,620.840942 
	C969.753479,611.433655 961.181824,592.999878 959.056519,571.194214 
	C957.496521,555.187683 959.330994,539.637207 967.111633,525.183838 
	C978.539490,503.955109 1001.053162,493.059784 1024.645752,497.390961 
	C1048.638916,501.795685 1064.544434,518.246033 1067.865112,542.683350 
	C1068.958374,550.729309 1069.036621,558.913147 1069.620728,567.657898 
	C1038.710083,567.657898 1008.499817,567.657898 978.330078,567.657898 
	C977.213501,586.731140 988.459656,603.524719 1005.357300,607.736938 
	C1021.397400,611.735413 1040.703125,608.856079 1048.639771,589.756165 
	C1054.576416,591.373474 1060.598389,593.014038 1067.103027,594.786133 
	C1064.623657,603.458862 1059.640625,610.015442 1052.631104,615.641052 
M1017.266235,514.007935 
	C992.289917,512.665588 978.774048,533.403992 978.139832,550.767395 
	C1001.875549,550.767395 1025.604736,550.767395 1049.331665,550.767395 
	C1049.496704,530.158508 1037.792725,516.456421 1017.266235,514.007935 
z"/>
<path fill="#0E8CE6" opacity="1.000000" stroke="none" 
	d="
M167.292694,569.000000 
	C167.292801,545.224731 167.292801,521.949463 167.292801,498.412842 
	C178.773666,498.412842 189.674805,498.412842 201.198349,498.412842 
	C201.198349,505.626587 201.198349,512.629822 201.198349,519.632996 
	C206.326080,508.236328 213.518814,499.659424 226.090515,497.121063 
	C234.330276,495.457306 242.254242,496.552673 249.898972,501.159058 
	C246.450577,510.651154 243.068024,519.962036 240.101578,528.127502 
	C233.290833,528.022705 226.972931,526.994934 221.020599,528.043152 
	C211.068283,529.795715 204.147583,538.021423 202.860443,548.098206 
	C202.314148,552.375000 202.246887,556.732788 202.234421,561.054565 
	C202.174423,581.846558 202.207443,602.638855 202.207443,623.717407 
	C190.566223,623.717407 179.302338,623.717407 167.292572,623.717407 
	C167.292572,605.672302 167.292572,587.586182 167.292694,569.000000 
z"/>
<path fill="#0E8CE6" opacity="1.000000" stroke="none" 
	d="
M409.292694,547.000000 
	C409.292816,530.559387 409.292816,514.618774 409.292816,498.415833 
	C421.124695,498.415833 432.385010,498.415833 443.970886,498.415833 
	C443.970886,540.177917 443.970886,581.900574 443.970886,623.815002 
	C432.579254,623.815002 421.291168,623.815002 409.292572,623.815002 
	C409.292572,598.330994 409.292572,572.915466 409.292694,547.000000 
z"/>
<path fill="#010101" opacity="1.000000" stroke="none" 
	d="
M766.774353,612.987976 
	C766.774353,574.560059 766.774353,536.631165 766.774353,498.449585 
	C773.271545,498.449585 779.349487,498.449585 785.715820,498.449585 
	C785.715820,540.216309 785.715820,581.901672 785.715820,623.794250 
	C779.536011,623.794250 773.448242,623.794250 766.774353,623.794250 
	C766.774353,620.335388 766.774353,616.911194 766.774353,612.987976 
z"/>
<path fill="#0E8CE6" opacity="1.000000" stroke="none" 
	d="
M430.488831,447.061188 
	C441.093079,450.192078 446.757935,457.375000 445.844452,466.029572 
	C444.979553,474.223785 437.606110,481.276581 429.181671,481.967743 
	C419.296539,482.778748 410.998962,477.306793 408.602142,468.396271 
	C405.969360,458.608582 413.545959,448.107727 424.092529,447.036743 
	C426.062103,446.836731 428.070251,447.016113 430.488831,447.061188 
z"/>
<path fill="#040404" opacity="1.000000" stroke="none" 
	d="
M773.102295,476.903076 
	C763.981750,473.070496 760.520813,465.803467 764.082947,458.677582 
	C767.557678,451.726562 776.406555,449.092499 783.309326,452.954498 
	C788.652832,455.944122 791.220520,461.560272 789.860474,467.283478 
	C788.638611,472.425171 783.487122,476.720062 777.954529,477.100525 
	C776.471191,477.202515 774.968384,477.022614 773.102295,476.903076 
z"/>
<path fill="#FFFFFF" opacity="1.000000" stroke="none" 
	d="
M106.727127,582.339905 
	C102.021606,592.134949 93.356621,594.453369 84.148796,594.870972 
	C73.362579,595.360229 62.537170,594.985352 51.366344,594.985352 
	C51.366344,580.267700 51.366344,565.735596 51.366344,551.219238 
	C63.830223,551.219238 76.380539,550.028564 88.603371,551.520569 
	C103.876854,553.385132 111.416199,567.242065 106.727127,582.339905 
z"/>
<path fill="#FFFFFF" opacity="1.000000" stroke="none" 
	d="
M91.898300,487.834045 
	C100.896782,493.503784 103.837547,500.088959 102.054199,509.911682 
	C100.628479,517.764526 93.682114,524.847046 84.209663,525.649048 
	C73.375031,526.566528 62.403023,525.861633 51.300686,525.861633 
	C51.209625,525.269714 51.027847,524.635925 51.027023,524.001892 
	C51.010406,511.221344 51.014584,498.440796 51.014584,484.852478 
	C64.707748,486.120483 78.345871,482.543701 91.898300,487.834045 
z"/>
<path fill="#FEFEFE" opacity="1.000000" stroke="none" 
	d="
M671.911072,474.281128 
	C680.129028,475.127136 687.987183,475.374329 695.557129,476.979889 
	C703.880676,478.745300 709.288757,484.646332 712.612244,492.416534 
	C718.995422,507.340302 715.228455,526.600281 703.483582,533.896912 
	C698.336792,537.094421 691.832703,539.315186 685.812683,539.658325 
	C671.410278,540.479492 656.929382,539.923584 642.241821,539.923584 
	C642.241821,518.207275 642.241821,496.619202 642.241821,474.281158 
	C651.932312,474.281158 661.678223,474.281158 671.911072,474.281128 
z"/>
<path fill="#FEFEFE" opacity="1.000000" stroke="none" 
	d="
M834.860901,556.163086 
	C835.451538,545.723999 837.689453,536.173523 843.480591,527.937988 
	C858.224670,506.970551 890.741638,509.485138 901.412354,532.833313 
	C910.133179,551.915039 909.736389,571.643921 900.916809,590.766724 
	C895.343384,602.851074 885.519592,608.956299 872.007446,609.205994 
	C858.343018,609.458374 848.375244,603.547424 841.741333,591.835815 
	C835.546997,580.900146 834.197937,568.950134 834.860901,556.163086 
z"/>
<path fill="#FEFEFE" opacity="1.000000" stroke="none" 
	d="
M1017.717529,514.031128 
	C1037.792725,516.456421 1049.496704,530.158508 1049.331665,550.767395 
	C1025.604736,550.767395 1001.875549,550.767395 978.139832,550.767395 
	C978.774048,533.403992 992.289917,512.665588 1017.717529,514.031128 
z"/>
</svg>